<svg width="42" height="42" viewBox="0 0 42 42" fill="none" xmlns="http://www.w3.org/2000/svg">
<path d="M27.2125 22.75C28.525 22.75 29.68 22.0325 30.275 20.9475L36.54 9.59C36.6875 9.32474 36.7631 9.02557 36.7595 8.7221C36.7559 8.41862 36.6731 8.12135 36.5192 7.85971C36.3654 7.59807 36.146 7.38112 35.8826 7.23033C35.6192 7.07955 35.321 7.00015 35.0175 7L9.1175 7L7.4725 3.5L1.75 3.5L1.75 7L5.25 7L11.55 20.2825L9.1875 24.5525C7.91 26.8975 9.59 29.75 12.25 29.75L33.25 29.75V26.25L12.25 26.25L14.175 22.75L27.2125 22.75ZM10.78 10.5L32.0425 10.5L27.2125 19.25L14.9275 19.25L10.78 10.5ZM12.25 31.5C10.325 31.5 8.7675 33.075 8.7675 35C8.7675 36.925 10.325 38.5 12.25 38.5C14.175 38.5 15.75 36.925 15.75 35C15.75 33.075 14.175 31.5 12.25 31.5ZM29.75 31.5C27.825 31.5 26.2675 33.075 26.2675 35C26.2675 36.925 27.825 38.5 29.75 38.5C31.675 38.5 33.25 36.925 33.25 35C33.25 33.075 31.675 31.5 29.75 31.5Z" fill="white"/>
</svg>
