<svg width="24" height="24" viewBox="0 0 24 24" fill="none" xmlns="http://www.w3.org/2000/svg">
<path d="M21 1.5L2.99531 1.5C2.17031 1.5 1.5 2.17969 1.5 3.01406L1.5 20.9859C1.5 21.8203 2.17031 22.5 2.99531 22.5L21 22.5C21.825 22.5 22.5 21.8203 22.5 20.9859L22.5 3.01406C22.5 2.17969 21.825 1.5 21 1.5ZM7.84687 19.5H4.73437L4.73437 9.47812L7.85156 9.47812L7.85156 19.5H7.84687ZM6.29062 8.10938C5.29219 8.10938 4.48594 7.29844 4.48594 6.30469C4.48594 5.31094 5.29219 4.5 6.29062 4.5C7.28437 4.5 8.09531 5.31094 8.09531 6.30469C8.09531 7.30312 7.28906 8.10938 6.29062 8.10938ZM19.5141 19.5H16.4016V14.625C16.4016 13.4625 16.3781 11.9672 14.7844 11.9672C13.1625 11.9672 12.9141 13.2328 12.9141 14.5406V19.5H9.80156L9.80156 9.47812L12.7875 9.47812V10.8469H12.8297C13.2469 10.0594 14.2641 9.22969 15.7781 9.22969C18.9281 9.22969 19.5141 11.3062 19.5141 14.0062V19.5Z" fill="white"/>
</svg>
